<svg width="110" height="90" viewBox="0 0 327 177" fill="none" xmlns="http://www.w3.org/2000/svg">
<path d="M19.84 98.48V120H5.36V63.36H19.84V85.12H27.6L39.84 63.36H56.32L39.52 90.48L56.16 120H39.36L27.92 98.48H19.84Z" fill="#EFFF9E"/>
<path d="M66.4081 57.84C67.5815 57.84 68.6748 58.0267 69.6881 58.4C70.7015 58.7733 71.5815 59.3333 72.3281 60.08C73.1281 60.8267 73.7681 61.7067 74.2481 62.72C74.7281 63.7333 74.9681 64.9067 74.9681 66.24C74.9681 69.0133 74.1148 71.12 72.4081 72.56C70.7015 73.9467 68.7015 74.64 66.4081 74.64C65.2881 74.64 64.2215 74.48 63.2081 74.16C62.1948 73.7867 61.2881 73.2533 60.4881 72.56C59.6881 71.8667 59.0481 71.0133 58.5681 70C58.0881 68.9333 57.8481 67.68 57.8481 66.24C57.8481 64.9067 58.0881 63.7333 58.5681 62.72C59.1015 61.7067 59.7681 60.8267 60.5681 60.08C61.3681 59.3333 62.2748 58.7733 63.2881 58.4C64.3015 58.0267 65.3415 57.84 66.4081 57.84ZM73.5281 120H59.4481V77.84H73.5281V120Z" fill="#CBE5F8"/>
<path d="M81.8475 120V63.36H104.008C108.488 63.36 112.514 63.9733 116.088 65.2C119.714 66.3733 122.781 68.1333 125.288 70.48C127.794 72.8267 129.714 75.76 131.048 79.28C132.434 82.8 133.128 86.88 133.128 91.52C133.128 101.013 130.568 108.133 125.448 112.88C120.381 117.627 113.288 120 104.168 120H81.8475ZM104.328 106.64C106.994 106.64 109.234 106.293 111.048 105.6C112.861 104.853 114.301 103.84 115.368 102.56C116.488 101.227 117.288 99.6533 117.768 97.84C118.248 95.9733 118.488 93.9467 118.488 91.76C118.488 89.6267 118.248 87.6533 117.768 85.84C117.341 84.0267 116.568 82.4533 115.448 81.12C114.328 79.7867 112.808 78.7467 110.888 78C109.021 77.2 106.648 76.8 103.768 76.8H96.3275V106.64H104.328Z" fill="#EAC7FF"/>
<path d="M169.924 81.52C169.657 79.76 168.724 78.4 167.124 77.44C165.524 76.4267 163.417 75.92 160.804 75.92C158.99 75.92 157.417 76.24 156.084 76.88C154.75 77.52 154.084 78.48 154.084 79.76C154.084 81.04 154.83 82 156.324 82.64C157.817 83.28 160.004 83.9733 162.884 84.72L168.084 86C170.377 86.5867 172.537 87.2267 174.564 87.92C176.644 88.56 178.457 89.4667 180.004 90.64C181.55 91.8133 182.777 93.3333 183.684 95.2C184.59 97.0133 185.097 99.3867 185.204 102.32C185.204 105.68 184.537 108.533 183.204 110.88C181.924 113.173 180.217 115.04 178.084 116.48C175.95 117.92 173.524 118.987 170.804 119.68C168.137 120.32 165.417 120.64 162.644 120.64C159.977 120.64 157.284 120.347 154.564 119.76C151.897 119.173 149.364 118.107 146.964 116.56C144.617 115.013 142.617 112.96 140.964 110.4C139.364 107.787 138.377 104.613 138.004 100.88H152.564C153.097 103.173 154.35 104.8 156.324 105.76C158.35 106.72 160.697 107.2 163.364 107.2C164.164 107.2 164.99 107.147 165.844 107.04C166.697 106.933 167.47 106.747 168.164 106.48C168.91 106.16 169.497 105.733 169.924 105.2C170.404 104.667 170.644 103.947 170.644 103.04C170.644 101.867 170.137 100.987 169.124 100.4C168.164 99.76 166.777 99.28 164.964 98.96L160.484 98C157.444 97.36 154.59 96.5867 151.924 95.68C149.257 94.7733 147.097 93.7067 145.444 92.48C143.684 91.1467 142.297 89.4667 141.284 87.44C140.27 85.4133 139.764 82.8267 139.764 79.68V79.52C139.977 76.32 140.777 73.6533 142.164 71.52C143.55 69.3867 145.284 67.6533 147.364 66.32C149.71 64.8267 152.164 63.84 154.724 63.36C157.337 62.88 160.084 62.64 162.964 62.64C165.364 62.6933 167.684 63.0667 169.924 63.76C172.217 64.4 174.244 65.3333 176.004 66.56C178.244 68.1067 180.03 70.1333 181.364 72.64C182.697 75.0933 183.55 78.0533 183.924 81.52H169.924Z" fill="#F9B1B1"/>
<path d="M5.216 162V128.064H9.296V140.592C9.712 139.952 10.24 139.36 10.88 138.816C11.52 138.272 12.192 137.824 12.896 137.472C13.6 137.12 14.368 136.864 15.2 136.704C16.064 136.512 16.896 136.416 17.696 136.416C19.52 136.416 21.04 136.72 22.256 137.328C23.504 137.904 24.496 138.72 25.232 139.776C26 140.8 26.528 142.032 26.816 143.472C27.136 144.88 27.296 146.416 27.296 148.08V162H23.216V149.328C23.216 148.176 23.152 147.056 23.024 145.968C22.896 144.848 22.608 143.856 22.16 142.992C21.712 142.128 21.072 141.424 20.24 140.88C19.408 140.304 18.272 140.016 16.832 140.016C15.648 140.016 14.544 140.32 13.52 140.928C12.528 141.504 11.728 142.24 11.12 143.136C10.384 144.128 9.888 145.232 9.632 146.448C9.408 147.664 9.296 148.912 9.296 150.192V162H5.216ZM44.9034 150.864C44.9994 151.984 45.2234 153.024 45.5754 153.984C45.9594 154.912 46.4714 155.728 47.1114 156.432C47.7514 157.136 48.5354 157.696 49.4634 158.112C50.4234 158.496 51.5274 158.688 52.7754 158.688C53.3834 158.688 54.0074 158.64 54.6474 158.544C55.3194 158.416 55.9434 158.224 56.5194 157.968C57.0954 157.68 57.6074 157.312 58.0554 156.864C58.5034 156.416 58.8394 155.872 59.0634 155.232H63.2394C62.9514 156.448 62.4554 157.504 61.7514 158.4C61.0794 159.296 60.2634 160.032 59.3034 160.608C58.3754 161.184 57.3354 161.616 56.1834 161.904C55.0314 162.16 53.8634 162.288 52.6794 162.288C50.6634 162.288 48.9034 161.968 47.3994 161.328C45.9274 160.688 44.6954 159.808 43.7034 158.688C42.7114 157.536 41.9754 156.176 41.4954 154.608C41.0154 153.008 40.7754 151.264 40.7754 149.376C40.7754 147.488 41.0314 145.76 41.5434 144.192C42.0874 142.592 42.8554 141.216 43.8474 140.064C44.8394 138.912 46.0554 138.016 47.4954 137.376C48.9354 136.736 50.6474 136.416 52.6314 136.416C54.6474 136.416 56.3914 136.816 57.8634 137.616C59.3354 138.416 60.5194 139.472 61.4154 140.784C62.3114 142.064 62.9354 143.456 63.2874 144.96C63.6714 146.464 63.8314 147.856 63.7674 149.136C63.7674 149.424 63.7514 149.712 63.7194 150C63.7194 150.288 63.7034 150.576 63.6714 150.864H44.9034ZM59.6394 147.312C59.5754 145.168 58.9034 143.424 57.6234 142.08C56.3434 140.736 54.6314 140.064 52.4874 140.064C51.3034 140.064 50.2634 140.256 49.3674 140.64C48.4714 141.024 47.7194 141.552 47.1114 142.224C46.5034 142.896 46.0234 143.68 45.6714 144.576C45.3194 145.44 45.0954 146.352 44.9994 147.312H59.6394ZM77.411 162V128.064H81.491V162H77.411ZM96.071 171.12V136.704H99.959L100.151 140.496C101.015 139.184 102.183 138.192 103.655 137.52C105.159 136.816 106.775 136.448 108.503 136.416C110.455 136.416 112.103 136.752 113.447 137.424C114.823 138.064 115.959 138.976 116.855 140.16C117.783 141.312 118.471 142.688 118.919 144.288C119.367 145.856 119.591 147.552 119.591 149.376C119.591 151.232 119.367 152.944 118.919 154.512C118.471 156.08 117.783 157.44 116.855 158.592C115.927 159.744 114.759 160.656 113.351 161.328C111.943 161.968 110.263 162.288 108.311 162.288C106.391 162.288 104.759 161.984 103.415 161.376C102.071 160.768 100.983 159.92 100.151 158.832V171.12H96.071ZM107.975 158.688C109.351 158.688 110.503 158.448 111.431 157.968C112.391 157.456 113.159 156.784 113.735 155.952C114.343 155.088 114.775 154.096 115.031 152.976C115.319 151.856 115.479 150.656 115.511 149.376C115.511 148.096 115.367 146.896 115.079 145.776C114.823 144.624 114.391 143.632 113.783 142.8C113.175 141.968 112.375 141.312 111.383 140.832C110.423 140.32 109.255 140.064 107.879 140.064C106.247 140.064 104.839 140.512 103.655 141.408C102.471 142.272 101.575 143.376 100.967 144.72C100.615 145.456 100.375 146.224 100.247 147.024C100.119 147.792 100.055 148.592 100.055 149.424C100.055 150.384 100.119 151.28 100.247 152.112C100.375 152.912 100.615 153.68 100.967 154.416C101.575 155.632 102.455 156.656 103.607 157.488C104.791 158.288 106.247 158.688 107.975 158.688ZM136.368 150.864C136.464 151.984 136.688 153.024 137.04 153.984C137.424 154.912 137.936 155.728 138.576 156.432C139.216 157.136 140 157.696 140.928 158.112C141.888 158.496 142.992 158.688 144.24 158.688C144.848 158.688 145.472 158.64 146.112 158.544C146.784 158.416 147.408 158.224 147.984 157.968C148.56 157.68 149.072 157.312 149.52 156.864C149.968 156.416 150.304 155.872 150.528 155.232H154.704C154.416 156.448 153.92 157.504 153.216 158.4C152.544 159.296 151.728 160.032 150.768 160.608C149.84 161.184 148.8 161.616 147.648 161.904C146.496 162.16 145.328 162.288 144.144 162.288C142.128 162.288 140.368 161.968 138.864 161.328C137.392 160.688 136.16 159.808 135.168 158.688C134.176 157.536 133.44 156.176 132.96 154.608C132.48 153.008 132.24 151.264 132.24 149.376C132.24 147.488 132.496 145.76 133.008 144.192C133.552 142.592 134.32 141.216 135.312 140.064C136.304 138.912 137.52 138.016 138.96 137.376C140.4 136.736 142.112 136.416 144.096 136.416C146.112 136.416 147.856 136.816 149.328 137.616C150.8 138.416 151.984 139.472 152.88 140.784C153.776 142.064 154.4 143.456 154.752 144.96C155.136 146.464 155.296 147.856 155.232 149.136C155.232 149.424 155.216 149.712 155.184 150C155.184 150.288 155.168 150.576 155.136 150.864H136.368ZM151.104 147.312C151.04 145.168 150.368 143.424 149.088 142.08C147.808 140.736 146.096 140.064 143.952 140.064C142.768 140.064 141.728 140.256 140.832 140.64C139.936 141.024 139.184 141.552 138.576 142.224C137.968 142.896 137.488 143.68 137.136 144.576C136.784 145.44 136.56 146.352 136.464 147.312H151.104ZM168.875 162V136.704H172.811L173.003 140.64C173.931 139.168 175.115 138.096 176.555 137.424C177.995 136.752 179.627 136.416 181.451 136.416H182.747V140.256H181.259C179.755 140.256 178.475 140.512 177.419 141.024C176.363 141.504 175.499 142.176 174.827 143.04C174.187 143.872 173.707 144.864 173.387 146.016C173.099 147.168 172.955 148.384 172.955 149.664V162H168.875Z" fill="#FAFAFA"/>
<path fill-rule="evenodd" clip-rule="evenodd" d="M217.287 96.0538L217.591 95.4474L217.064 95.0199C204.677 84.9579 197 70.8018 197 55.1521C197 24.8154 225.931 0 261.917 0C297.903 0 326.834 24.8154 326.834 55.1521C326.834 85.4889 297.903 110.304 261.917 110.304C252.236 110.304 243.054 108.504 234.807 105.278L234.356 105.102L233.977 105.402L198.61 133.389L217.287 96.0538Z" fill="#FAFAFA"/>
<path d="M220.172 72.1062C225.443 58.4621 237.893 33.0842 245.526 40.725C253.159 48.3657 248.707 63.0104 245.526 69.3775C249.615 64.0108 257.521 55.7882 256.431 65.8301C255.068 78.3825 254.25 55.1877 265.7 62.2826C277.15 69.3776 270.334 77.0181 265.7 72.1062C261.065 67.1945 270.88 58.4623 277.15 63.9198C283.42 69.3776 285.328 76.4723 291.053 69.3775C295.633 63.7015 300.776 45.5459 302.776 37.1777" stroke="#364351" stroke-width="2" stroke-linecap="round"/>
</svg>
