<svg width="100" height="100" viewBox="0 0 567 567" fill="none" xmlns="http://www.w3.org/2000/svg">
<path d="M356.548 259.232C357.166 259.232 357.667 258.732 357.667 258.114C357.667 257.496 357.166 256.996 356.548 256.996C355.93 256.996 355.429 257.496 355.429 258.114C355.429 258.732 355.93 259.232 356.548 259.232Z" stroke="#364351" stroke-width="2"/>
<path d="M272.48 13.8687C273.098 13.8687 273.599 13.3681 273.599 12.7505C273.599 12.133 273.098 11.6324 272.48 11.6324C271.862 11.6324 271.361 12.133 271.361 12.7505C271.361 13.3681 271.862 13.8687 272.48 13.8687Z" stroke="#364351" stroke-width="2"/>
<path d="M21.9646 207.671C22.5826 207.671 23.0836 207.17 23.0836 206.553C23.0836 205.935 22.5826 205.434 21.9646 205.434C21.3467 205.434 20.8457 205.935 20.8457 206.553C20.8457 207.17 21.3467 207.671 21.9646 207.671Z" stroke="#364351" stroke-width="2"/>
<path d="M509.927 45.7473C510.545 45.7473 511.046 45.2467 511.046 44.6291C511.046 44.0116 510.545 43.511 509.927 43.511C509.309 43.511 508.808 44.0116 508.808 44.6291C508.808 45.2467 509.309 45.7473 509.927 45.7473Z" stroke="#364351" stroke-width="2"/>
<path d="M535.768 224.822C536.386 224.822 536.887 224.322 536.887 223.704C536.887 223.087 536.386 222.586 535.768 222.586C535.15 222.586 534.649 223.087 534.649 223.704C534.649 224.322 535.15 224.822 535.768 224.822Z" stroke="#364351" stroke-width="2"/>
<path d="M205.344 105.453C205.962 105.453 206.462 104.952 206.462 104.335C206.462 103.717 205.962 103.216 205.344 103.216C204.726 103.216 204.225 103.717 204.225 104.335C204.225 104.952 204.726 105.453 205.344 105.453Z" stroke="#364351" stroke-width="2"/>
<path d="M513.854 456.914C514.472 456.914 514.973 456.414 514.973 455.796C514.973 455.179 514.472 454.678 513.854 454.678C513.236 454.678 512.735 455.179 512.735 455.796C512.735 456.414 513.236 456.914 513.854 456.914Z" stroke="#364351" stroke-width="2"/>
<path d="M542.482 340.141L548.689 344.634" stroke="#364351" stroke-width="2" stroke-linecap="round"/>
<path d="M99.6143 1L105.821 5.51484" stroke="#364351" stroke-width="2" stroke-linecap="round"/>
<path d="M285.991 554.195L279.7 558.583" stroke="#364351" stroke-width="2" stroke-linecap="round"/>
<path d="M469.328 534.532L463.037 538.92" stroke="#364351" stroke-width="2" stroke-linecap="round"/>
<path d="M33.8715 92.0351L27.5801 96.4234" stroke="#364351" stroke-width="2" stroke-linecap="round"/>
<path d="M124.295 187.015L118.003 191.404" stroke="#364351" stroke-width="2" stroke-linecap="round"/>
<path d="M1 386.47L8.13587 383.664" stroke="#364351" stroke-width="2" stroke-linecap="round"/>
<path d="M395.289 1.29523L399.469 7.72993" stroke="#364351" stroke-width="2" stroke-linecap="round"/>
<path d="M451.954 232.439L456.134 238.873" stroke="#364351" stroke-width="2" stroke-linecap="round"/>
<path d="M115.364 558.582L119.523 565.017" stroke="#364351" stroke-width="2" stroke-linecap="round"/>
<path d="M150.79 132.838C152.12 132.542 153.45 132.162 154.822 131.719M77.4256 60.7056C75.4621 70.9168 74.2799 87.0774 78.4812 97.4995L77.4256 60.7056ZM164.618 127.5C161.726 129.061 158.918 130.306 156.216 131.255L164.618 127.5ZM79.8957 100.453C80.529 101.529 81.2257 102.5 82.0069 103.386L79.8957 100.453ZM83.4214 104.715C84.477 105.58 85.6593 106.297 86.9893 106.782L83.4214 104.715ZM88.2561 107.183C90.135 107.668 92.2673 107.774 94.6741 107.436C116.272 104.419 121.339 78.8283 121.191 66.4019C120.747 56.9714 115.005 44.8615 105.188 58.5748C95.3919 72.2881 102.591 99.0607 107.426 110.728C111.395 119.377 121.74 131.93 137.975 133.682L88.2561 107.183ZM141.226 133.892C141.965 133.914 142.725 133.892 143.485 133.85L141.226 133.892ZM145.174 133.745C146.462 133.639 147.792 133.449 149.164 133.196L145.174 133.745Z" stroke="#364351" stroke-width="2" stroke-linecap="round"/>
<path d="M486.62 396.006C487.042 395.901 487.464 395.795 487.907 395.648M463.248 373.01C462.615 376.259 462.235 381.407 463.586 384.74L463.248 373.01ZM491.032 394.297C490.103 394.783 489.216 395.184 488.351 395.5L491.032 394.297ZM464.03 385.69C464.22 386.027 464.452 386.344 464.705 386.618L464.03 385.69ZM465.149 387.04C465.486 387.314 465.866 387.546 466.289 387.694L465.149 387.04ZM466.69 387.842C467.281 387.989 467.956 388.032 468.738 387.926C475.62 386.956 477.246 378.812 477.182 374.846C477.035 371.829 475.198 367.989 472.073 372.356C468.949 376.723 471.25 385.268 472.791 388.981C474.058 391.745 477.351 395.732 482.524 396.302L466.69 387.842ZM483.579 396.344C483.812 396.344 484.065 396.344 484.297 396.323L483.579 396.344ZM484.846 396.302C485.268 396.259 485.691 396.196 486.113 396.133L484.846 396.302Z" stroke="#FCAAAA" stroke-width="2" stroke-linecap="round"/>
<path d="M444.775 354.149L440.658 287.839L353.17 294.633M253.964 302.375L286.709 299.823L253.964 302.375Z" stroke="#364351" stroke-width="2"/>
<path d="M229.39 334.739L443.783 345.562" stroke="#364351" stroke-width="2"/>
<path d="M215.097 354.044L275.098 272.692L299.714 329.655L358.511 305.33C346.076 279.001 313.479 222.987 286.118 210.139" stroke="#364351" stroke-width="2" stroke-linecap="round"/>
<path d="M302.945 354.55L304.211 327.988L340.123 312.925L342.255 318.41L400.862 351.111L400.229 354.55H323.55L319.855 342.313L316.477 354.55H302.945Z" fill="#364351"/>
<path d="M501.524 352.968L474.965 351.048L444.944 352.968L442.347 314.803H460.778L466.33 312.819L507.478 260.603L510.919 261.321L502.031 332.398L489.701 335.773L501.862 339.444L501.524 352.968Z" fill="#364351"/>
<path d="M273.24 240.814L332.861 315.984M177.771 353.833L238.405 275.857L177.771 353.833Z" stroke="#364351" stroke-width="2" stroke-linecap="round"/>
<path d="M264.901 207.501C261.206 207.712 251.051 211.214 240.115 223.514" stroke="#364351" stroke-width="2" stroke-linecap="round"/>
<path d="M217.673 248.936L201.649 267.312" stroke="#364351" stroke-width="2" stroke-linecap="round"/>
<path d="M236.42 218.641L248.328 235.497L267.392 204.252V200.138M214.823 245.181L236.42 273.937C239.883 276.996 248.771 280.983 256.519 272.46C264.267 263.937 280.925 223.451 288.272 204.273L214.823 245.181Z" stroke="#364351" stroke-width="2" stroke-linecap="round"/>
<path d="M331.087 161.087H340.355L337.04 167.754M275.583 198.64L244.992 203.936L247.209 197.269L275.583 198.64ZM275.583 198.64L241.783 197.29L243.219 191.847L275.583 198.64ZM275.583 198.64L232.768 189.632L256.202 144.758L293.212 160.159L275.583 198.64ZM275.583 198.64L293.233 160.18L275.583 198.64ZM275.583 198.64L311.242 202.712L331.087 161.108L275.583 198.64ZM275.583 198.64L315.485 210.982L337.019 167.754L275.583 198.64ZM275.583 198.64L315.485 218.071L340.355 168.724L337.04 167.775L275.583 198.64ZM293.233 160.18L332.396 158.365L331.087 161.087L293.233 160.18Z" stroke="#364351" stroke-width="2"/>
<path d="M207.624 30.0725V32.8785M357.688 147.543L420.876 71.4023L357.688 147.543ZM343.564 111.909L352.347 76.8454L343.564 111.909ZM362.628 202.839L438.948 175.138L362.628 202.839ZM263.57 127.12L261.354 42.5411L263.57 127.12ZM410.848 59.7143L408.336 63.8916L410.848 59.7143ZM407.154 74.6302L409.75 71.4234L407.154 74.6302ZM435.95 55.2417L438.948 52.6467L435.95 55.2417ZM230.002 20.2833V23.8699V20.2833ZM228.609 45.8534V48.4483V45.8534Z" stroke="#364351" stroke-width="2" stroke-linecap="round"/>
<path d="M309.51 189.357C309.785 189.294 310.08 189.21 310.355 189.125M294.099 174.252C293.697 176.404 293.444 179.779 294.331 181.973L294.099 174.252ZM312.403 188.218C311.79 188.556 311.199 188.809 310.65 189.02L312.403 188.218ZM294.626 182.585C294.753 182.817 294.901 183.007 295.07 183.197L294.626 182.585ZM295.386 183.471C295.598 183.661 295.851 183.809 296.125 183.893L295.386 183.471ZM296.379 183.999C296.78 184.104 297.223 184.125 297.73 184.041C302.248 183.408 303.303 178.028 303.282 175.433C303.198 173.45 301.973 170.918 299.925 173.788C297.878 176.657 299.398 182.269 300.411 184.716C301.256 186.53 303.43 189.146 306.829 189.526L296.379 183.999ZM307.505 189.568C307.652 189.568 307.821 189.568 307.969 189.568H307.505ZM308.328 189.547C308.603 189.526 308.877 189.484 309.173 189.421L308.328 189.547Z" stroke="#364351" stroke-width="2" stroke-linecap="round"/>
<path d="M225.717 188.641L241.656 216.532L212.902 248.979L209.482 244.422L203 264.57C203 269.317 203 291.786 195.252 305.309C187.821 318.263 172.641 315.352 169.896 329.466C164.661 356.428 158.137 350.078 155.392 354.53H113.527C105.272 308.432 115.301 271.427 126.912 248.958C139.938 223.747 160.227 188.62 181.592 176.953C198.672 167.649 216.216 175.138 225.717 188.641Z" fill="#FCAAAA"/>
<path d="M207.603 242.206L200.214 230.581" stroke="#364351" stroke-width="2" stroke-linecap="round"/>
<path d="M218.138 151.826C218.56 153.661 218.75 155.623 218.686 157.67C218.644 159.041 218.475 160.349 218.201 161.615C217.483 165.012 217.525 167.733 219.362 170.708C219.468 170.771 216.786 170.159 214.865 169.252C212.226 172.881 208.468 175.096 204.351 174.948C198.419 174.737 193.563 169.653 191.895 162.733" stroke="#364351" stroke-width="2"/>
<path d="M216.744 158.492C216.026 157.227 213.767 155.053 210.495 156.551" stroke="#364351" stroke-width="2" stroke-linecap="round"/>
<path d="M209.228 171.657C208.468 171.362 206.906 170.244 206.8 168.26" stroke="#364351" stroke-width="2" stroke-linecap="round"/>
<path d="M215.393 161.889C214.907 160.433 213.091 158.007 209.735 159.884" stroke="#364351" stroke-width="2" stroke-linecap="round"/>
<path d="M212.627 161.972C213.303 161.972 213.852 161.425 213.852 160.749C213.852 160.073 213.303 159.525 212.627 159.525C211.951 159.525 211.403 160.073 211.403 160.749C211.403 161.425 211.951 161.972 212.627 161.972Z" fill="#364351"/>
<path d="M220.692 156.509L218.433 150.707L212.121 149.336L191.536 160.159C191.769 160.792 191.114 162.459 186.617 164.188C181.001 166.362 174.9 169.99 174.119 175.117C173.486 179.21 165.843 181.024 162.106 181.404L210.643 187.016C210.094 185.729 209.693 181.72 212.606 175.898C215.52 170.075 210.347 160.539 207.392 156.509H220.692Z" fill="#364351"/>
<path d="M186.659 166.783L222.001 149.968L220.227 142.88L218.37 143.26C216.828 139.715 212.965 137.331 208.489 135.538C204.013 133.766 202.388 132.141 197.3 129.989C193.225 128.259 192.043 129.736 191.98 130.685C191.41 133.597 189.467 140.749 186.195 146.108C182.922 151.466 184.464 157.437 185.646 159.758L183.788 161.762L186.659 166.783Z" fill="#364351"/>
<path fill-rule="evenodd" clip-rule="evenodd" d="M108.249 353.77H526.817C548.119 353.77 565.409 371.027 565.409 392.336C565.409 413.623 548.14 430.902 526.817 430.902H108.249V353.77Z" stroke="#364351" stroke-width="2"/>
<path d="M107.404 362.631H375.527C392.079 362.631 405.506 376.049 405.506 392.59C405.506 409.13 392.079 422.548 375.527 422.548H107.404" stroke="#364351" stroke-width="2"/>
<path d="M203.613 402.695H318.99M125.519 396.387L365.246 384.699L125.519 396.387Z" stroke="#364351" stroke-width="2" stroke-linecap="round"/>
<path d="M169.896 394.235L133.077 396.134V450.86L170.762 453.835L169.896 394.235Z" fill="#364351"/>
<path d="M424.529 354.339L428.709 431.387M411.988 354.339L413.529 431.387L411.988 354.339Z" stroke="#364351" stroke-width="2"/>
<path fill-rule="evenodd" clip-rule="evenodd" d="M493.481 432.21H74.9131C53.6111 432.21 36.3203 449.468 36.3203 470.776C36.3203 492.063 53.59 509.342 74.9131 509.342H493.481V432.21Z" stroke="#364351" stroke-width="2"/>
<path d="M493.945 437.315H216.279C197.785 437.315 182.796 452.295 182.796 470.797C182.796 489.278 197.785 504.257 216.279 504.257H493.945" stroke="#364351" stroke-width="2"/>
<path d="M393.515 482.085H273.092M475.029 475.038L224.766 461.958L475.029 475.038Z" stroke="#364351" stroke-width="2" stroke-linecap="round"/>
<path d="M356.844 467.907L395.289 470.037V531.199L375.929 514.068L355.936 534.532L356.844 467.907Z" fill="#FCAAAA"/>
<path d="M137.405 432.632L133.225 509.68M149.966 432.632L148.425 509.68L149.966 432.632Z" stroke="#364351" stroke-width="2"/>
</svg>
