<svg width="255" height="258" viewBox="0 0 558 554" fill="none" xmlns="http://www.w3.org/2000/svg">
<path d="M433.317 266.145C433.938 266.145 434.442 265.641 434.442 265.02C434.442 264.398 433.938 263.895 433.317 263.895C432.696 263.895 432.192 264.398 432.192 265.02C432.192 265.641 432.696 266.145 433.317 266.145Z" stroke="#364351" stroke-width="2"/>
<path d="M197.45 266.145C198.072 266.145 198.575 265.641 198.575 265.02C198.575 264.398 198.072 263.895 197.45 263.895C196.829 263.895 196.325 264.398 196.325 265.02C196.325 265.641 196.829 266.145 197.45 266.145Z" stroke="#364351" stroke-width="2"/>
<path d="M141.726 442.348C142.348 442.348 142.851 441.844 142.851 441.223C142.851 440.601 142.348 440.098 141.726 440.098C141.105 440.098 140.601 440.601 140.601 441.223C140.601 441.844 141.105 442.348 141.726 442.348Z" stroke="#364351" stroke-width="2"/>
<path d="M123.271 54.7494C123.893 54.7494 124.396 54.2457 124.396 53.6244C124.396 53.003 123.893 52.4993 123.271 52.4993C122.65 52.4993 122.146 53.003 122.146 53.6244C122.146 54.2457 122.65 54.7494 123.271 54.7494Z" stroke="#364351" stroke-width="2"/>
<path d="M489.76 255.872L495.956 260.38" stroke="#364351" stroke-width="2" stroke-linecap="round"/>
<path d="M159.253 125.643L165.45 130.15" stroke="#364351" stroke-width="2" stroke-linecap="round"/>
<path d="M45.3806 376.759L39.0935 381.138" stroke="#364351" stroke-width="2" stroke-linecap="round"/>
<path d="M527.224 382.614L520.937 386.993" stroke="#364351" stroke-width="2" stroke-linecap="round"/>
<path d="M31.5351 80.5181L25.2479 84.8972" stroke="#364351" stroke-width="2" stroke-linecap="round"/>
<path d="M406.325 90.1224L413.456 87.3208" stroke="#364351" stroke-width="2" stroke-linecap="round"/>
<path fill-rule="evenodd" clip-rule="evenodd" d="M385.171 1L390.409 29.3167L412.737 20.043L392.026 36.2999L410.536 45.4023L389.086 41.4028L393.579 68.0035L382.514 42.1328L363.006 63.2476L375.849 39.1839L356.554 32.7048L375 31.55L369.466 19.6673L380.211 28.1762L385.171 1Z" stroke="#364351" stroke-width="2"/>
<path fill-rule="evenodd" clip-rule="evenodd" d="M67.5814 231.194L74.1319 266.596L102.046 255.002L76.1517 275.327L99.2943 286.707L72.4768 281.707L78.0936 314.966L64.2596 282.621L39.8696 309.018L55.9271 278.934L31.8035 270.832L54.867 269.388L47.9473 254.533L61.3808 265.17L67.5814 231.194Z" stroke="#364351" stroke-width="2"/>
<path fill-rule="evenodd" clip-rule="evenodd" d="M444.8 409.84L447.675 425.382L459.929 420.291L448.561 429.214L458.722 434.21L446.949 432.015L449.414 446.613L443.342 432.416L432.635 444.004L439.684 430.797L429.096 427.241L439.22 426.608L436.181 420.086L442.078 424.755L444.8 409.84Z" stroke="#364351" stroke-width="2"/>
<path d="M500.143 1.21411L504.312 7.64295" stroke="#364351" stroke-width="2" stroke-linecap="round"/>
<path d="M1.77417 497.472L5.94209 503.901" stroke="#364351" stroke-width="2" stroke-linecap="round"/>
<path d="M289.968 227.732L285.819 350.75L359.766 338.311L345.522 218.714L312.819 171.318M247.759 203.949L190.012 334.004L255.083 346.267L288.833 261.423L247.759 203.949Z" stroke="#364351" stroke-width="2" stroke-linecap="round"/>
<path fill-rule="evenodd" clip-rule="evenodd" d="M222.234 90.3238L222.148 89.6305L221.451 89.5854C220.567 89.5277 219.493 89.4026 218.56 89.2774C220.748 87.5047 222.152 85.1384 222.998 82.3693C223.361 81.1767 223.84 79.9837 224.436 78.8103C226.584 74.5778 229.836 71.4433 233.321 69.7784C236.806 68.1139 240.476 67.9324 243.564 69.4998C246.651 71.0671 248.671 74.1382 249.384 77.9328C250.096 81.7286 249.484 86.2025 247.335 90.435C245.187 94.6673 241.936 97.8017 238.45 99.4667C234.967 101.131 231.295 101.313 228.207 99.7455C224.858 98.0447 222.76 94.569 222.234 90.3238Z" stroke="#364351" stroke-width="2"/>
<path d="M236.257 86.8842C230.261 81.1445 230.748 72.9785 231.594 70.1205C232.464 69.2261 235.252 67.5333 239.435 67.917C244.665 68.3967 247.877 71.2585 249.984 78.3439C251.672 84.0119 247.348 91.771 244.973 94.9421C242.158 94.9461 240.222 92.8133 239.606 91.7465C241.744 90.8308 244.401 88.0787 242.466 85.6121C240.528 83.1454 235.991 86.624 236.257 86.8842Z" fill="#364351"/>
<path d="M259.574 59.6471C250.34 57.8136 245.142 65.2696 243.698 69.2268L244.568 71.3333C244.952 70.4929 249.344 69.4738 252.497 69.7089C262.06 70.4228 263.77 86.5553 264.686 91.0248L280.257 70.5233C277.21 67.662 268.808 61.4809 259.574 59.6471Z" fill="#364351"/>
<path d="M225.928 81.1241C227.029 80.1617 229.879 78.8668 232.464 81.3862" stroke="#364351" stroke-width="2" stroke-linecap="round"/>
<path d="M225.181 95.2542C225.995 95.3561 227.89 95.1391 228.948 93.4554" stroke="#364351" stroke-width="2" stroke-linecap="round"/>
<path d="M226.046 84.7762C226.993 83.5705 229.52 81.8811 232.044 84.7699" stroke="#364351" stroke-width="2" stroke-linecap="round"/>
<path d="M229.046 85.8459C229.723 85.8452 230.271 85.2959 230.271 84.619C230.27 83.9421 229.72 83.394 229.044 83.3947C228.367 83.3954 227.818 83.9447 227.819 84.6216C227.82 85.2985 228.369 85.8467 229.046 85.8459Z" fill="#364351"/>
<path d="M237.101 89.0329C237.534 88.3349 238.893 86.9978 240.866 87.2326" stroke="#364351" stroke-width="2" stroke-linecap="round"/>
<path d="M238.986 87.6868C239.52 87.8607 240.353 88.5911 239.433 90.1212" stroke="#364351" stroke-width="2" stroke-linecap="round"/>
<path d="M244.999 95.011L250.351 102.835M233.739 101.398L238.948 109.826L233.739 101.398Z" stroke="#364351" stroke-width="2" stroke-linecap="round"/>
<path d="M236.47 106.012L233.775 101.573C238.486 100.812 242.58 97.6686 244.038 96.1919C241.791 101.723 238.057 105.043 236.47 106.012Z" fill="#364351"/>
<path d="M187.575 144.957C168.272 167.216 158.647 177.06 156.247 179.202C136.06 152.541 121.22 122.242 100.961 96.3104C98.6268 93.3224 94.4282 92.9191 94.6119 97.8039C94.7271 100.873 97.96 109.306 99.1863 111.058L78.4165 104.293L53.681 114.248C49.2985 116.001 50.0471 122.348 57.9859 119.08C52.8721 121.732 50.0401 130.295 60.9044 127.252C55.1645 130.565 56.6478 137.711 64.2123 135.423C60.9044 137.981 59.2103 142.428 67.131 142.428C69.6216 142.428 78.7358 140.979 82.9819 140.254C86.5145 142.713 93.58 147.63 93.58 147.63L129.345 205.907C135.12 212.349 149.802 222.865 162.33 213.404C174.857 203.943 193.871 187.916 201.81 181.086" stroke="#364351" stroke-width="2" stroke-linecap="round"/>
<path d="M156.292 179.002V189.396" stroke="#364351" stroke-width="2" stroke-linecap="round"/>
<path d="M63.1212 135.857L78.3919 130.15L84.7675 131.024" stroke="#364351" stroke-width="2" stroke-linecap="round"/>
<path d="M441.605 170.31L427.762 178.919L421.338 179.322" stroke="#364351" stroke-width="2" stroke-linecap="round"/>
<path d="M60.6532 127.374L75.9239 121.667L82.2995 122.541" stroke="#364351" stroke-width="2" stroke-linecap="round"/>
<path d="M445.7 178.138L431.857 186.748L425.432 187.149" stroke="#364351" stroke-width="2" stroke-linecap="round"/>
<path d="M57.4141 119.302L72.6848 113.595L79.0603 114.469" stroke="#364351" stroke-width="2" stroke-linecap="round"/>
<path d="M450.467 185.413L436.624 194.022L430.202 194.425" stroke="#364351" stroke-width="2" stroke-linecap="round"/>
<path d="M107.001 131.91C107.42 132.115 107.926 131.941 108.131 131.522C108.335 131.103 108.161 130.597 107.742 130.393L107.001 131.91ZM99.7423 111.898C98.6862 114.127 97.7867 117.778 98.5083 121.559C99.2392 125.39 101.624 129.284 107.001 131.91L107.742 130.393C102.843 128.001 100.798 124.552 100.167 121.243C99.5258 117.884 100.331 114.598 101.268 112.621L99.7423 111.898Z" fill="#364351"/>
<path d="M312.965 96.2887C320.073 96.7201 367.271 108.17 377.833 117.081C388.394 125.992 401.557 152.124 407.144 164.148L421.802 168.453C425.911 167.159 434.744 164.486 437.211 164.148C445.058 163.072 443.984 167.708 441.054 170.691C448.239 167.397 450.678 174.276 445.44 178.339C455.792 173.848 454.148 182.716 449.442 186.038C456.862 181.722 458.466 187.91 454.363 190.242L431.209 203.462L409.713 199.578C411.165 201.148 415.512 209.065 416.044 212.089C416.888 216.905 412.676 217.074 409.957 214.432C407.106 213.026 356.52 143.263 356.52 143.263L310.688 133.18" stroke="#364351" stroke-width="2" stroke-linecap="round"/>
<path d="M316.891 95.7828L314.672 137.992H293.271L314.672 172.086L245.767 206.327L222.745 166.043L201.163 186.762L178.717 153.094C202.429 125.47 227.103 111.22 236.476 107.548C247.282 111.362 249.463 103.883 249.203 99.6664C276.277 90.1238 305.61 93.1012 316.891 95.7828Z" fill="#EAC7FF"/>
<path d="M271.269 144.462C270.69 144.938 269.962 145.324 269.061 145.598C260.999 148.055 255.047 139.904 253.08 135.521C251.695 132.139 251.74 126.956 257.409 130.168C263.078 133.38 264.916 143.945 265.125 148.826C265.144 152.506 263.561 158.597 258.156 161.852M267.486 126.389C269.844 129.653 272.89 135.124 273.117 139.471L267.486 126.389ZM247.803 164.021C249.074 164.096 250.258 164.075 251.36 163.972L247.803 164.021Z" stroke="#364351" stroke-width="2" stroke-linecap="round"/>
<path d="M291.538 134.657L285.656 123.572M221.635 164.065L215.753 153.206L221.635 164.065Z" stroke="#364351" stroke-width="2" stroke-linecap="round"/>
<path d="M337.732 221.217L314.054 345.839M223.169 339.789L289.39 243.578L223.169 339.789ZM298.269 186.363C301.042 197.861 312.701 219.787 337.732 221.217L298.269 186.363ZM342.992 221.217C341.176 221.317 339.425 221.314 337.732 221.217H342.992Z" stroke="#364351" stroke-width="2" stroke-linecap="round"/>
<path d="M194.928 444.766L138.123 435.377M190.19 333.801L138.123 435.377L190.19 333.801ZM117.836 474.954L138.123 435.377L117.836 474.954ZM177.349 485.611L194.928 444.766L177.349 485.611ZM238.637 343.203L194.928 444.766L238.637 343.203Z" stroke="#364351" stroke-width="2"/>
<path d="M184.217 448.136L172.208 473.412M134.291 469.305L144.297 445.504L134.291 469.305ZM149.563 473.412L161.781 448.136L149.563 473.412Z" stroke="#364351" stroke-width="2" stroke-linecap="round"/>
<path d="M122.819 463.426L179.886 482.013L163.088 522.909L18.0454 502.676C21.008 495.049 29.77 477.752 41.1163 469.584C79.6936 443.111 109.509 458.553 119.595 469.584L122.819 463.426Z" fill="#364351"/>
<path d="M454.252 342.489L433.604 296.237L467.189 272.695L557.54 387.942C550.113 391.376 531.8 397.743 517.961 395.744C471.816 388.02 461.788 349.131 462.187 334.191L454.252 342.489Z" fill="#364351"/>
<path d="M352.88 339.988L351.335 354.548L437.652 294.426M293.311 349.694C299.489 384.257 328.965 441.735 397.446 395.14C409.449 387.199 440.983 355.063 455.25 339.988L293.311 349.694Z" stroke="#364351" stroke-width="2"/>
<path d="M351.649 354.091L343.251 368.551" stroke="#364351" stroke-width="2" stroke-linecap="round"/>
<path d="M435.668 346.964L448.633 329.382M412.422 311.65L420.419 324.401L412.422 311.65ZM439.99 355.606L420.419 324.401L439.99 355.606ZM420.419 324.401L439.99 306.732L420.419 324.401ZM441.331 319.994L429.26 331.914L441.331 319.994Z" stroke="#364351" stroke-width="2" stroke-linecap="round"/>
<path d="M291.538 538.594C318.964 538.594 341.197 516.362 341.197 488.938C341.197 461.513 318.964 439.281 291.538 439.281C264.113 439.281 241.88 461.513 241.88 488.938C241.88 516.362 264.113 538.594 291.538 538.594Z" stroke="#364351" stroke-width="2"/>
<path d="M231.571 552.853L248.814 534.201M229.174 395.981L256.59 428.811L229.174 395.981ZM175.129 547.72L238.675 512.571L175.129 547.72Z" stroke="#EAC7FF" stroke-width="2" stroke-linecap="round"/>
<path d="M279.886 465.759L268.183 444.694C295.589 433.631 314.64 443.065 320.74 449.164L308.824 470.653L279.886 465.759Z" fill="#364351"/>
<path d="M265.292 477.67L280.988 464.518" stroke="#364351" stroke-width="2"/>
<path d="M263.702 500.922L279.386 514.092" stroke="#364351" stroke-width="2"/>
<path d="M303.887 511.608L321.532 501.212" stroke="#364351" stroke-width="2"/>
<path d="M305.453 466.189L319.965 480.638" stroke="#364351" stroke-width="2"/>
<path d="M266.706 502.81L249.891 515.719C236.717 493.306 242.458 475.509 246.976 469.412L267.219 476.999L266.706 502.81Z" fill="#364351"/>
<path d="M317.139 502.81L333.954 515.719C347.128 493.306 341.386 475.509 336.867 469.412L316.627 476.999L317.139 502.81Z" fill="#364351"/>
<path d="M277.022 510.644L262.951 530.205C288.883 544.379 308.902 537.225 315.668 531.877L306.333 509.147L277.022 510.644Z" fill="#364351"/>
</svg>
