<svg width="255" height="258" viewBox="0 0 536 553" fill="none" xmlns="http://www.w3.org/2000/svg">
<path d="M521.307 180.634C521.925 180.634 522.426 180.134 522.426 179.516C522.426 178.899 521.925 178.398 521.307 178.398C520.688 178.398 520.187 178.899 520.187 179.516C520.187 180.134 520.688 180.634 521.307 180.634Z" stroke="#364351" stroke-width="2"/>
<path d="M511.591 329.432C512.21 329.432 512.711 328.932 512.711 328.314C512.711 327.697 512.21 327.196 511.591 327.196C510.973 327.196 510.472 327.697 510.472 328.314C510.472 328.932 510.973 329.432 511.591 329.432Z" stroke="#364351" stroke-width="2"/>
<path d="M55.2075 206.934C55.8257 206.934 56.3269 206.434 56.3269 205.817C56.3269 205.199 55.8257 204.699 55.2075 204.699C54.5893 204.699 54.0881 205.199 54.0881 205.817C54.0881 206.434 54.5893 206.934 55.2075 206.934Z" stroke="#364351" stroke-width="2"/>
<path d="M146.362 481.521C146.98 481.521 147.481 481.02 147.481 480.403C147.481 479.786 146.98 479.285 146.362 479.285C145.743 479.285 145.242 479.786 145.242 480.403C145.242 481.02 145.743 481.521 146.362 481.521Z" stroke="#364351" stroke-width="2"/>
<path d="M305.417 66.1299C306.035 66.1299 306.537 65.6295 306.537 65.0121C306.537 64.3948 306.035 63.8943 305.417 63.8943C304.799 63.8943 304.298 64.3948 304.298 65.0121C304.298 65.6295 304.799 66.1299 305.417 66.1299Z" stroke="#364351" stroke-width="2"/>
<path d="M256.841 382.392C257.459 382.392 257.96 381.892 257.96 381.275C257.96 380.657 257.459 380.157 256.841 380.157C256.223 380.157 255.721 380.657 255.721 381.275C255.721 381.892 256.223 382.392 256.841 382.392Z" stroke="#364351" stroke-width="2"/>
<path d="M149.551 62.1855C150.169 62.1855 150.67 61.685 150.67 61.0677C150.67 60.4503 150.169 59.9498 149.551 59.9498C148.933 59.9498 148.432 60.4503 148.432 61.0677C148.432 61.685 148.933 62.1855 149.551 62.1855Z" stroke="#364351" stroke-width="2"/>
<path d="M141.293 251.753L147.502 256.266" stroke="#364351" stroke-width="2" stroke-linecap="round"/>
<path d="M237.516 1.75977L243.725 6.27328" stroke="#364351" stroke-width="2" stroke-linecap="round"/>
<path d="M38.2691 493.585L31.9753 497.972" stroke="#364351" stroke-width="2" stroke-linecap="round"/>
<path d="M526.418 519.042L520.124 523.429" stroke="#364351" stroke-width="2" stroke-linecap="round"/>
<path d="M473.766 301.128L467.472 305.515" stroke="#364351" stroke-width="2" stroke-linecap="round"/>
<path d="M317.815 304.798L311.521 309.185" stroke="#364351" stroke-width="2" stroke-linecap="round"/>
<path d="M42.5351 85.5336L36.2413 89.9206" stroke="#364351" stroke-width="2" stroke-linecap="round"/>
<path d="M416.256 82.6866L423.394 79.8815" stroke="#364351" stroke-width="2" stroke-linecap="round"/>
<path d="M511.465 6.27319L515.647 12.706" stroke="#364351" stroke-width="2" stroke-linecap="round"/>
<path d="M38.3745 354.384L42.5352 360.817" stroke="#364351" stroke-width="2" stroke-linecap="round"/>
<path d="M1.03418 551.101H532.881" stroke="#364351" stroke-width="2" stroke-linecap="round"/>
<path d="M247.464 511.872C229.976 521.089 182.73 540.176 133.795 542.749M281.889 244.414C280.981 264.493 268.035 315.344 223.598 358.075C168.052 411.478 169.763 421.074 176.627 435.796L281.889 244.414ZM176.627 435.796C140.976 435.796 108.747 468.656 78.9251 472.431C58.3752 475.025 41.9016 452.922 54.5736 422.108C67.2668 391.293 79.263 372.122 137.533 328.99C184.167 294.485 199.479 254.812 201.295 239.289L176.627 435.796ZM176.627 435.796L255.827 416.286C259.988 418.058 268.034 425.377 266.978 440.436L176.627 435.796ZM176.627 435.796C195.952 439.065 226.597 457.056 194.642 502.845L176.627 435.796Z" stroke="#B8E1FF" stroke-width="2" stroke-linecap="round"/>
<path d="M186.68 491.096C187.82 500.861 194.642 500.672 197.916 499.364C191.136 512.462 169.192 539.606 135.569 543.445C101.946 547.283 75.6091 534.207 66.6542 527.183L186.68 491.096Z" fill="#364351"/>
<path d="M278.933 210.014C270.696 125.797 238.065 97.3875 222.795 93.7177L148.495 131.914C158.865 128.16 182.815 134.508 195.571 189.936" stroke="#B8E1FF" stroke-width="2"/>
<path d="M143.046 223.808C125.643 158.51 140.617 133.728 149.91 130.1C152.803 128.982 161.906 129.573 172.572 138.368C183.237 147.163 190.334 167.895 192.889 176.838L143.046 223.808Z" fill="#364351"/>
<path d="M471.147 31.0137L475.751 55.8802L495.393 47.739L477.166 62.0178L493.45 70.0113L474.59 66.4891L478.539 89.8581L468.803 67.1218L451.653 85.661L462.952 64.5276L445.972 58.833L462.192 57.8206L457.313 47.3805L466.775 54.8468L471.147 31.0137Z" fill="#364351"/>
<path fill-rule="evenodd" clip-rule="evenodd" d="M62.5784 269.302L67.1825 294.168L86.8242 286.027L68.5976 300.306L84.8812 308.299L66.0209 304.777L69.9704 328.146L60.234 305.41L43.0634 323.949L54.3626 302.816L37.3821 297.121L53.6023 296.109L48.7236 285.669L58.1854 293.135L62.5784 269.302Z" stroke="#364351" stroke-width="2"/>
<path d="M490.197 365.457L491.908 374.673L499.173 371.657L492.436 376.951L498.455 379.904L491.465 378.596L492.922 387.244L489.31 378.828L482.953 385.704L487.135 377.879L480.841 375.77L486.839 375.39L485.044 371.531L488.55 374.294L490.197 365.457Z" fill="#364351"/>
<path d="M384.786 368.809C384.702 376.022 385.251 397.071 388.039 423.498C390.848 449.947 400.035 495.103 404.28 514.38L494.336 496.263L452.328 373.28V237.727L432.074 203.011M369.136 240.554L230.525 511.849H328.86L384.786 368.809L369.136 240.554ZM420.521 278.602L384.786 368.809L420.521 278.602Z" stroke="#364351" stroke-width="2" stroke-linecap="round"/>
<path d="M401.45 326.036L396.614 385.218L475.898 499.427" stroke="#364351" stroke-width="2"/>
<path d="M385.716 288.198L258.805 511.68M369.474 250.846C368.63 258.523 371.016 275.522 385.716 288.198L369.474 250.846ZM391.904 292.775C389.623 291.341 387.574 289.801 385.716 288.198L391.904 292.775Z" stroke="#364351" stroke-width="2" stroke-linecap="round"/>
<path d="M330.74 222.119C321.003 240.216 309.746 243.379 297.983 244.328H209.32L173.163 222.119C169.762 219.863 170.037 216.889 172.888 216.003C170.269 215.792 167.186 211.848 171.6 209.212C169.446 208.558 167.904 205.542 170.861 203.665C171.177 203.475 172.065 203.095 173.142 203.137C174.219 203.179 177.366 203.749 178.802 204.044L172.508 199.742C170.565 198.413 171.431 194.152 175.423 195.481L200.619 207.271L193.459 195.08C192.276 192.634 194.262 187.825 198.887 191.474C201.168 193.035 213.249 205.626 221.57 213.746L294.413 209.697L298.426 202.399" stroke="#364351" stroke-width="2"/>
<path d="M418.642 171.417L466.901 236.778L476.257 272.169C477.989 276.472 483.058 274.932 483.1 268.774C483.523 267.719 483.016 258.692 482.72 254.326L490.471 265.61L515.013 277.147L532.015 271.832C536.365 270.524 535.689 266.833 530.98 266.053C534.105 264.956 537.273 260.485 529.163 260.168C531.085 258.502 534.042 255.655 529.269 254.853C528.15 254.748 521.37 256.984 521.37 256.984C521.37 256.984 514.759 254.748 512.626 254.769L531.001 250.614C533.155 250.15 533.261 246.586 529.776 246.311C529.079 246.016 517.04 246.543 511.127 246.839L443.014 153.658" stroke="#364351" stroke-width="2"/>
<path d="M482.826 254.304C486.965 252.533 494.716 246.501 492.604 236.609" stroke="#364351" stroke-width="2" stroke-linecap="round"/>
<path d="M529.269 260.126L518.455 262.404L512.246 258.945M531.317 265.989L516.026 269.638L509.437 265.82L531.317 265.989Z" stroke="#364351" stroke-width="2" stroke-linecap="round"/>
<path d="M178.021 203.602L191.157 210.372M172.74 215.982L191.77 221.888L172.74 215.982ZM171.389 209.149L192.065 215.476L171.389 209.149Z" stroke="#364351" stroke-width="2" stroke-linecap="round"/>
<path fill-rule="evenodd" clip-rule="evenodd" d="M323.665 119.153L323.39 118.52L322.714 118.668C321.848 118.857 320.771 119.026 319.842 119.153C321.468 116.854 322.165 114.196 322.228 111.307C322.249 110.062 322.397 108.776 322.63 107.489C323.538 102.828 325.819 98.9262 328.712 96.3742C331.606 93.8222 335.091 92.6411 338.491 93.2949C341.891 93.9487 344.679 96.3531 346.411 99.8121C348.143 103.271 348.776 107.742 347.868 112.382C346.96 117.044 344.679 120.945 341.786 123.497C338.892 126.049 335.407 127.231 332.007 126.577C328.311 125.86 325.333 123.097 323.665 119.153Z" stroke="#364351" stroke-width="2"/>
<path d="M336.231 112.024C328.881 108.143 327.128 100.17 327.149 97.1754C335.196 85.5331 350.994 87.5157 355.091 98.7362C356.675 105.738 358.28 109.197 361.174 110.442C367.721 112.15 381.048 114.85 381.491 118.499C368.756 119.638 361.934 121.367 350.403 126.619L345.482 117.613C343.327 117.676 341.532 116.516 340.793 115.799C342.609 114.344 344.404 110.969 341.87 109.113C339.314 107.257 335.893 111.834 336.231 112.024Z" fill="#364351"/>
<path d="M324.7 109.303C325.502 108.08 327.889 106.055 331.057 107.763" stroke="#364351" stroke-width="2" stroke-linecap="round"/>
<path d="M328.734 121.641C329.536 121.514 331.31 120.797 331.859 118.878" stroke="#364351" stroke-width="2" stroke-linecap="round"/>
<path d="M325.819 112.783C326.41 111.37 328.374 109.05 331.584 111.138" stroke="#364351" stroke-width="2" stroke-linecap="round"/>
<path d="M328.67 113.037C329.346 113.037 329.895 112.489 329.895 111.813C329.895 111.138 329.346 110.59 328.67 110.59C327.993 110.59 327.445 111.138 327.445 111.813C327.445 112.489 327.993 113.037 328.67 113.037Z" fill="#364351"/>
<path d="M337.625 113.858C337.857 113.078 338.786 111.412 340.751 111.095" stroke="#364351" stroke-width="2" stroke-linecap="round"/>
<path d="M339.082 112.045C339.631 112.066 340.645 112.53 340.181 114.259" stroke="#364351" stroke-width="2" stroke-linecap="round"/>
<path d="M335.936 131.743L333.507 126.703C338.238 126.091 343.222 122.99 344.722 121.556C342.293 126.998 337.541 130.815 335.936 131.743Z" fill="#364351"/>
<path d="M324.615 121.494C324.573 121.43 324.509 121.346 324.467 121.283C324.594 121.198 324.636 121.283 324.615 121.494C326.093 123.666 329.473 127.694 335.386 126.745L338.723 133.705C338.723 133.705 329.367 140.644 322.376 150.958C313.506 164.013 305.248 185.864 305.248 185.864C304.53 184.725 303.516 180.507 305.248 172.682C307.402 162.896 295.026 162.305 292.787 154.016C290.506 145.58 294.371 138.366 302.671 133.368C309.324 129.361 313.062 132.862 318.532 129.044C323.01 125.902 324.531 122.443 324.615 121.494Z" fill="#364351"/>
<path d="M313.274 166.734L296.209 204.572L331.099 224.06L342.504 199.13L366.813 243.38L433.426 203.433L417.882 175.867L448.97 152.582C437.016 143.661 409.666 124.89 395.917 121.051C378.725 116.263 373.952 116.348 361.301 121.051C351.079 124.847 344.236 128.602 332.768 138.725C323.01 147.288 315.639 160.681 313.274 166.734Z" fill="#B8E1FF"/>
<path d="M416.255 172.555L407.385 156.547M340.962 195.397L335.513 184.683L340.962 195.397Z" stroke="#364351" stroke-width="2" stroke-linecap="round"/>
<path d="M307.339 551.099H325.354L317.033 511.701H286.367V513.515L213.502 551.099H297.645L305.713 540.09L307.339 551.099Z" fill="#364351"/>
<path d="M471.991 551.1H490.006L480.27 498.772L447.872 505.479L451.04 513.536L378.175 551.121H462.318L470.386 540.111L471.991 551.1Z" fill="#364351"/>
</svg>
