<svg width="255" height="258" viewBox="0 0 550 558" fill="none" xmlns="http://www.w3.org/2000/svg">
<path d="M444.413 266.827C445.034 266.827 445.538 266.323 445.538 265.701C445.538 265.079 445.034 264.575 444.413 264.575C443.792 264.575 443.289 265.079 443.289 265.701C443.289 266.323 443.792 266.827 444.413 266.827Z" stroke="#364351" stroke-width="2"/>
<path d="M208.67 266.827C209.291 266.827 209.795 266.323 209.795 265.701C209.795 265.079 209.291 264.575 208.67 264.575C208.049 264.575 207.545 265.079 207.545 265.701C207.545 266.323 208.049 266.827 208.67 266.827Z" stroke="#364351" stroke-width="2"/>
<path d="M67.0782 435.235C67.6992 435.235 68.2027 434.731 68.2027 434.109C68.2027 433.487 67.6992 432.983 67.0782 432.983C66.4571 432.983 65.9536 433.487 65.9536 434.109C65.9536 434.731 66.4571 435.235 67.0782 435.235Z" stroke="#364351" stroke-width="2"/>
<path d="M69.0465 38.1258C69.6676 38.1258 70.1711 37.6218 70.1711 37.0002C70.1711 36.3785 69.6676 35.8745 69.0465 35.8745C68.4255 35.8745 67.922 36.3785 67.922 37.0002C67.922 37.6218 68.4255 38.1258 69.0465 38.1258Z" stroke="#364351" stroke-width="2"/>
<path d="M377.881 94.2686C378.502 94.2686 379.006 93.7646 379.006 93.143C379.006 92.5213 378.502 92.0173 377.881 92.0173C377.26 92.0173 376.756 92.5213 376.756 93.143C376.756 93.7646 377.26 94.2686 377.881 94.2686Z" stroke="#364351" stroke-width="2"/>
<path d="M226.803 462.542C227.424 462.542 227.928 462.038 227.928 461.417C227.928 460.795 227.424 460.291 226.803 460.291C226.182 460.291 225.679 460.795 225.679 461.417C225.679 462.038 226.182 462.542 226.803 462.542Z" stroke="#364351" stroke-width="2"/>
<path d="M505.34 127.269L511.533 131.778" stroke="#364351" stroke-width="2" stroke-linecap="round"/>
<path d="M134.722 422.685C135.495 422.85 136.301 422.987 137.139 423.089M113.621 366.314C110.058 371.252 105.456 379.531 105.11 386.109L113.621 366.314ZM143.374 423.256C141.453 423.37 139.664 423.338 137.999 423.182L143.374 423.256ZM105.139 388.024C105.204 388.748 105.334 389.443 105.539 390.097L105.139 388.024ZM105.953 391.159C106.297 391.881 106.751 392.544 107.329 393.133L105.953 391.159ZM107.905 393.661C108.779 394.381 109.879 394.966 111.241 395.38C123.428 399.098 132.425 386.763 135.4 380.133C137.492 375.015 137.423 367.171 128.854 372.031C120.286 376.892 117.509 392.88 117.191 400.264C117.164 405.834 119.557 415.048 127.725 419.974L107.905 393.661ZM129.401 420.884C129.793 421.074 130.196 421.254 130.612 421.425L129.401 420.884ZM131.534 421.78C132.25 422.039 132.999 422.269 133.782 422.466L131.534 421.78Z" stroke="#364351" stroke-width="2" stroke-linecap="round"/>
<path d="M482.845 204.597C484.347 204.918 485.91 205.18 487.538 205.38M441.863 95.1133C434.944 104.706 426.006 120.784 425.333 133.558L441.863 95.1133ZM499.649 205.703C495.917 205.923 492.443 205.864 489.209 205.56L499.649 205.703ZM425.39 137.278C425.517 138.684 425.77 140.032 426.168 141.305L425.39 137.278ZM426.97 143.365C427.639 144.769 428.52 146.057 429.645 147.202L426.97 143.365ZM430.763 148.227C432.459 149.626 434.598 150.759 437.241 151.566C460.909 158.784 478.383 134.83 484.161 121.951C488.226 112.013 488.091 96.779 471.45 106.219C454.806 115.658 449.414 146.707 448.796 161.051C448.746 171.866 453.391 189.764 469.256 199.331L430.763 148.227ZM472.511 201.096C473.272 201.466 474.055 201.816 474.861 202.148L472.511 201.096ZM476.654 202.838C478.044 203.341 479.497 203.786 481.018 204.17L476.654 202.838Z" stroke="#ECFF8E" stroke-width="2" stroke-linecap="round"/>
<path d="M412.257 295.935C416.094 287.998 430.364 276.889 456.758 295.935C483.149 314.98 500.488 303.87 505.859 295.935" stroke="#364351" stroke-width="2" stroke-linecap="round"/>
<path d="M464.541 336.001C466.073 332.83 471.775 328.392 482.32 336.001C492.863 343.609 499.792 339.171 501.938 336.001" stroke="#364351" stroke-width="2" stroke-linecap="round"/>
<path d="M205.573 333.747L211.767 338.255" stroke="#364351" stroke-width="2" stroke-linecap="round"/>
<path d="M236.173 65.2412L242.366 69.7498" stroke="#364351" stroke-width="2" stroke-linecap="round"/>
<path d="M279.385 6.86209L286.06 3.106" stroke="#364351" stroke-width="2" stroke-linecap="round"/>
<path d="M187.46 510.937L193.653 515.445" stroke="#364351" stroke-width="2" stroke-linecap="round"/>
<path d="M19.4366 329.063L13.1528 333.445" stroke="#364351" stroke-width="2" stroke-linecap="round"/>
<path d="M381.022 490.796L374.738 495.177" stroke="#364351" stroke-width="2" stroke-linecap="round"/>
<path d="M538.271 383.352L531.987 387.733" stroke="#364351" stroke-width="2" stroke-linecap="round"/>
<path d="M43.8378 141.299L39.3972 135.054" stroke="#364351" stroke-width="2" stroke-linecap="round"/>
<path d="M541.7 62.8173L548.828 60.0144" stroke="#364351" stroke-width="2" stroke-linecap="round"/>
<path d="M511.204 1.76855L515.37 8.2005" stroke="#364351" stroke-width="2" stroke-linecap="round"/>
<path d="M13.0974 498.266L17.2634 504.697" stroke="#364351" stroke-width="2" stroke-linecap="round"/>
<path d="M331.716 534.659H349.707L340.624 484.265H306.744L310.771 497.031L238.004 534.659H322.05L330.104 523.639L331.716 534.659Z" fill="#364351"/>
<path d="M306.744 484.265H340.624M331.29 445.583L340.624 484.265L331.29 445.583ZM293.921 447.453L306.744 484.265L293.921 447.453ZM306.744 484.265L310.771 497.03L238.004 534.659H322.05L330.104 523.639L331.716 534.659H349.707L340.624 484.265H306.744Z" stroke="#364351" stroke-width="2" stroke-linecap="round"/>
<path d="M465.292 453.515L477.407 440.202L434.07 412.99L411.257 438.061L423.399 443.678L402.19 522.864L458.784 460.669L456.07 447.288L465.292 453.515Z" fill="#364351"/>
<path d="M411.257 438.062L434.071 412.99M412.468 400.816L434.071 412.99L412.468 400.816ZM390.456 428.904L411.257 438.062L390.456 428.904ZM411.257 438.062L423.399 443.678L402.191 522.864L458.785 460.669L456.07 447.289L465.292 453.516L477.407 440.203L434.071 412.99L411.257 438.062Z" stroke="#364351" stroke-width="2" stroke-linecap="round"/>
<path d="M318.034 265.671L311.598 270.297L295.408 304.714C293.932 308.09 290.818 308.284 291.299 305.396C289.865 307.771 286.895 310.896 284.458 306.359C283.703 308.489 280.63 309.887 278.883 306.836C278.702 306.519 278.364 305.615 278.457 304.534C278.552 303.453 279.271 300.347 279.619 298.931L275.038 305.016C273.62 306.901 269.393 305.827 270.907 301.901L283.859 277.284L271.348 283.872C268.844 284.942 264.144 282.731 267.998 278.287C269.656 276.08 287.055 259.653 295.548 251.714L304.464 247.276" stroke="#364351" stroke-width="2"/>
<path d="M279.155 299.697L286.53 286.902M291.272 305.544L298.049 286.809L291.272 305.544ZM284.389 306.581L291.668 286.226L284.389 306.581Z" stroke="#364351" stroke-width="2" stroke-linecap="round"/>
<path d="M254.141 133.503L255.683 139.915L251.399 140.948M269.467 126.424L271.778 136.036L275.902 135.043L269.467 126.424Z" stroke="#364351" stroke-width="2" stroke-linecap="round"/>
<path d="M269.838 129.438L269.076 126.268L270.302 123.364C258.873 115.482 252.367 107.806 250.543 104.953C248.423 107.9 245.596 110.101 244.449 110.833C244.048 112.47 244.09 114.502 244.16 115.313C244.712 119.59 247.474 128.989 254.095 132.363C260.717 135.737 266.199 130.647 268.112 127.68C267.878 128.855 267.359 131.06 266.121 132.82C263.387 136.707 256.789 137.968 254.899 137.512L253.954 133.578L237.329 134.99C237.082 132.127 241.164 130.039 240.312 125.258C236.443 103.58 245.735 92.4902 257.715 93.2231C266.526 93.7623 272.487 101.496 280.531 109.553C286.148 115.181 294.231 115.313 295.337 122.161L269.838 129.438Z" fill="#364351"/>
<path d="M244.065 114.181C246.041 113.876 248.397 114.519 249.758 116.733C251.593 119.725 251.578 123.943 249.311 126.941C249.577 126.972 252.201 126.52 254.171 124.351" stroke="#364351" stroke-width="2" stroke-linecap="round"/>
<path d="M254.346 113.538C255.553 112.71 258.531 111.758 260.805 114.564" stroke="#364351" stroke-width="2" stroke-linecap="round"/>
<path d="M254.629 128.971C255.445 129.042 257.329 128.756 258.325 127.033" stroke="#364351" stroke-width="2" stroke-linecap="round"/>
<path d="M1.31641 556.061H531.987" stroke="#364351" stroke-width="2" stroke-linecap="round"/>
<path d="M268.015 108.976L250.8 120.037L262.666 119.106L268.015 108.976Z" fill="#364351"/>
<path d="M231.45 120.361L251.895 119.617L241.617 125.626L231.45 120.361Z" fill="#364351"/>
<path d="M260.761 113.648L261.972 119.152L260.761 119.244L259.63 114.385L260.761 113.648ZM263.425 111.94L263.76 117.024L263.045 118.389L261.811 112.984L263.425 111.94Z" fill="white"/>
<path d="M240.065 120.048L241.402 119.999L243.261 124.653L242.214 125.268L240.065 120.048Z" fill="white"/>
<path d="M236.888 120.164L238.823 120.087L240.898 125.254L239.533 124.541L236.888 120.164Z" fill="white"/>
<path d="M252.137 221.691C249.937 249.44 245.891 318.799 247.212 365.047C248.532 411.292 265.802 452.144 274.274 466.787C275.592 458.751 283.051 443.73 302.323 447.96C326.415 453.245 331.695 443.996 338.296 441.023C343.575 438.644 349.516 440.031 351.825 441.023L308.924 365.047V299.31C311.674 319.57 321.399 366.831 338.296 393.786C355.192 420.741 370.197 441.133 375.588 447.96C373.827 443.775 375.126 433.756 394.398 427.149C418.49 418.891 401.328 402.705 419.15 395.766C429.183 392.331 434.771 390.813 436.311 390.481L383.178 345.226L317.077 196.763" stroke="#364351" stroke-width="2"/>
<path d="M299.885 223.684C304.969 229.472 318.332 240.474 331.13 238.2M319.918 237.153L356.399 343.957L422.585 394.502L319.918 237.153Z" stroke="#364351" stroke-width="2" stroke-linecap="round"/>
<path fill-rule="evenodd" clip-rule="evenodd" d="M114.575 223.001L65.4814 225.911L110.127 300.051L155.116 289.092L114.575 223.001Z" stroke="#364351" stroke-width="2"/>
<path d="M169.963 251.387L160.265 249.124C152.882 249.573 140.528 250.376 131.831 251.064M165.199 273.975L160.816 273.682L149.225 279.148L165.199 273.975Z" stroke="#364351" stroke-width="2"/>
<path d="M273 160.277L253.844 139.477C250.229 140.219 244.915 141.855 237.036 143.762C221.624 147.835 214.486 162.516 212.934 168.944L202.22 237.084L155.789 246.292L164.015 278.251C172.637 276.697 194.341 272.726 212.176 269.259C230.012 265.794 235.553 256.837 236.095 252.794L244.862 203.501L251.138 223.436L318.131 196.785L313.046 183.785L335.773 209.135L298.218 245.209L320.296 270.342C369.129 240.184 371.526 212.927 366.619 203.069C361.495 192.452 348.674 166.387 338.372 147.061C328.067 127.734 309.689 126.297 301.79 127.994L275.166 134.277L273 160.277Z" fill="#ECFF8E"/>
<path d="M244.113 199.891L239.763 186.673" stroke="#364351" stroke-width="2" stroke-linecap="round"/>
<path d="M311.594 179.578L307.244 166.36" stroke="#364351" stroke-width="2" stroke-linecap="round"/>
<path d="M350.171 202.868L337.595 208.803" stroke="#364351" stroke-width="2" stroke-linecap="round"/>
<path d="M88.9164 229.849L85.7623 224.705L100.719 224.027L103.114 228.138L88.9164 229.849Z" fill="#364351"/>
<path d="M329.107 556.06C336.024 556.06 341.631 550.447 341.631 543.523C341.631 536.599 336.024 530.986 329.107 530.986C322.189 530.986 316.582 536.599 316.582 543.523C316.582 550.447 322.189 556.06 329.107 556.06Z" fill="#364351"/>
<path d="M479.343 469.858C484.001 464.739 483.631 456.81 478.517 452.148C473.403 447.486 465.481 447.856 460.823 452.975C456.166 458.093 456.535 466.023 461.649 470.685C466.763 475.347 474.685 474.977 479.343 469.858Z" fill="#364351"/>
<path d="M265.473 556.06C272.391 556.06 277.998 550.447 277.998 543.523C277.998 536.599 272.391 530.986 265.473 530.986C258.556 530.986 252.949 536.599 252.949 543.523C252.949 550.447 258.556 556.06 265.473 556.06Z" fill="#364351"/>
<path d="M436.496 516.948C441.153 511.829 440.784 503.9 435.67 499.238C430.556 494.576 422.634 494.946 417.976 500.065C413.318 505.184 413.688 513.113 418.802 517.775C423.916 522.437 431.838 522.067 436.496 516.948Z" fill="#364351"/>
<path fill-rule="evenodd" clip-rule="evenodd" d="M100.248 157.718L100.551 157.112L100.025 156.684C87.6376 146.622 79.9603 132.466 79.9603 116.816C79.9603 86.4796 108.892 61.6642 144.878 61.6642C180.863 61.6642 209.794 86.4796 209.794 116.816C209.794 147.153 180.863 171.969 144.878 171.969C135.197 171.969 126.015 170.168 117.767 166.943L117.317 166.766L116.937 167.067L81.57 195.053L100.248 157.718Z" stroke="#ECFF8E" stroke-width="2"/>
<path d="M103.133 133.77C108.403 120.126 120.853 94.7483 128.486 102.389C136.12 110.03 131.667 124.675 128.486 131.042C132.576 125.675 140.482 117.452 139.391 127.494C138.028 140.047 137.21 116.852 148.66 123.947C160.11 131.042 153.295 138.682 148.66 133.77C144.026 128.859 153.84 120.126 160.11 125.584C166.38 131.042 168.289 138.136 174.014 131.042C178.594 125.366 183.737 107.21 185.736 98.8418" stroke="#364351" stroke-width="2" stroke-linecap="round"/>
</svg>
