<svg width="255" height="258" viewBox="0 0 489 460" fill="none" xmlns="http://www.w3.org/2000/svg">
<g id="Page 2">
<g id="12">
<path id="Oval" d="M379.934 222.734C380.454 222.734 380.876 222.312 380.876 221.792C380.876 221.272 380.454 220.851 379.934 220.851C379.413 220.851 378.991 221.272 378.991 221.792C378.991 222.312 379.413 222.734 379.934 222.734Z" stroke="#364351" stroke-width="2"/>
<path id="Oval_2" d="M182.306 222.734C182.827 222.734 183.249 222.312 183.249 221.792C183.249 221.272 182.827 220.851 182.306 220.851C181.786 220.851 181.364 221.272 181.364 221.792C181.364 222.312 181.786 222.734 182.306 222.734Z" stroke="#364351" stroke-width="2"/>
<path id="Oval_3" d="M135.616 370.208C136.137 370.208 136.559 369.787 136.559 369.267C136.559 368.747 136.137 368.325 135.616 368.325C135.096 368.325 134.674 368.747 134.674 369.267C134.674 369.787 135.096 370.208 135.616 370.208Z" stroke="#364351" stroke-width="2"/>
<path id="Oval_4" d="M65.2567 31.4145C65.7774 31.4145 66.1994 30.9929 66.1994 30.4729C66.1994 29.9528 65.7774 29.5312 65.2567 29.5312C64.736 29.5312 64.314 29.9528 64.314 30.4729C64.314 30.9929 64.736 31.4145 65.2567 31.4145Z" stroke="#364351" stroke-width="2"/>
<path id="Oval_5" d="M324.157 78.3811C324.678 78.3811 325.1 77.9595 325.1 77.4394C325.1 76.9194 324.678 76.4978 324.157 76.4978C323.636 76.4978 323.214 76.9194 323.214 77.4394C323.214 77.9595 323.636 78.3811 324.157 78.3811Z" stroke="#364351" stroke-width="2"/>
<path id="Oval_6" d="M294.309 366.912C294.829 366.912 295.251 366.49 295.251 365.97C295.251 365.45 294.829 365.029 294.309 365.029C293.788 365.029 293.366 365.45 293.366 365.97C293.366 366.49 293.788 366.912 294.309 366.912Z" stroke="#364351" stroke-width="2"/>
<path id="Path" d="M431.01 105.988L436.202 109.759" stroke="#364351" stroke-width="2" stroke-linecap="round"/>
<path id="Path_2" d="M255.148 292.365L260.34 296.136" stroke="#364351" stroke-width="2" stroke-linecap="round"/>
<path id="Path_3" d="M143.681 322.043L145.533 328.183" stroke="#364351" stroke-width="2" stroke-linecap="round"/>
<path id="Path_4" d="M216.126 71.0387L221.318 74.8106" stroke="#364351" stroke-width="2" stroke-linecap="round"/>
<path id="Path_5" d="M241.588 5.26154L247.183 2.11938" stroke="#364351" stroke-width="2" stroke-linecap="round"/>
<path id="Path_6" d="M158.127 310.306L163.319 314.079" stroke="#364351" stroke-width="2" stroke-linecap="round"/>
<path id="Path_7" d="M158.127 290.478L163.319 294.249" stroke="#364351" stroke-width="2" stroke-linecap="round"/>
<path id="Path_8" d="M144.868 298.811L145.574 305.184" stroke="#364351" stroke-width="2" stroke-linecap="round"/>
<path id="Path_9" d="M23.668 274.799L18.4001 278.464" stroke="#364351" stroke-width="2" stroke-linecap="round"/>
<path id="Path_10" d="M261.312 401.261L256.044 404.927" stroke="#364351" stroke-width="2" stroke-linecap="round"/>
<path id="Path_11" d="M458.617 320.213L453.349 323.878" stroke="#364351" stroke-width="2" stroke-linecap="round"/>
<path id="Path_12" d="M44.1236 117.724L40.4011 112.5" stroke="#364351" stroke-width="2" stroke-linecap="round"/>
<path id="Path_13" d="M461.492 52.0708L467.467 49.726" stroke="#364351" stroke-width="2" stroke-linecap="round"/>
<path id="Path_14" fill-rule="evenodd" clip-rule="evenodd" d="M181.871 7.03955L186.262 30.7393L204.968 22.9776L187.615 36.584L203.124 44.2022L185.152 40.8548L188.917 63.1183L179.645 41.4658L163.3 59.1379L174.062 38.9977L157.896 33.575L173.351 32.6085L168.714 22.6632L177.716 29.7848L181.871 7.03955Z" stroke="#ECFF8E" stroke-width="2"/>
<path id="Path_15" fill-rule="evenodd" clip-rule="evenodd" d="M461.909 345.798L465.589 365.659L481.264 359.156L466.723 370.557L479.72 376.941L464.659 374.136L467.814 392.794L460.044 374.648L446.348 389.457L455.365 372.58L441.817 368.035L454.77 367.226L450.883 358.892L458.427 364.859L461.909 345.798Z" stroke="#364351" stroke-width="2"/>
<path id="Path_16" d="M40.9725 171.086L44.8315 191.92L61.2761 185.096L46.0215 197.058L59.655 203.754L43.8564 200.812L47.1654 220.383L39.0156 201.349L24.6473 216.884L34.107 199.18L19.8955 194.412L33.4824 193.563L29.4059 184.821L37.3198 191.081L40.9725 171.086Z" fill="#364351"/>
<path id="Path_17" d="M435.927 0.999756L439.419 6.38039" stroke="#364351" stroke-width="2" stroke-linecap="round"/>
<path id="Path_18" d="M18.3538 416.345L21.846 421.725" stroke="#364351" stroke-width="2" stroke-linecap="round"/>
<path id="Path_19" d="M1 458.705H488" stroke="#364351" stroke-width="2" stroke-linecap="round"/>
<path id="Path_20" d="M253.896 126.761L136.055 82.324C136.055 82.324 100.125 135.174 101.79 172.98C103.36 208.63 139.48 256.244 139.48 256.244C139.48 256.244 80.8701 268.135 56.1035 293.853C29.8402 321.127 21.8384 384.508 21.8384 384.508L203.436 452.99C203.436 452.99 239.366 400.139 237.702 362.334C236.132 326.682 200.013 279.07 200.013 279.07C200.013 279.07 258.622 267.179 283.389 241.459C301.584 222.565 311.014 186.339 315.091 165.865" stroke="#364351" stroke-width="2"/>
<path id="Path_21" d="M294.308 225.157L109.91 203.943C108.441 208.548 129.293 241.03 139.903 256.695L163.871 286.036C163.871 286.036 179.153 284.374 199.235 279.163C266 267.442 290.505 238.292 294.308 225.157Z" fill="#364351"/>
<path id="Rectangle" d="M209.392 452.025L18.007 379.854C16.4535 379.268 14.7186 380.051 14.1321 381.603C13.5456 383.155 14.3295 384.888 15.8831 385.474L207.268 457.644C208.821 458.23 210.556 457.447 211.142 455.895C211.729 454.343 210.945 452.611 209.392 452.025Z" fill="#364351"/>
<path id="Path_22" d="M252.895 123.173L132.224 77.6684C130.671 77.0825 128.936 77.8655 128.349 79.4173C127.763 80.969 128.547 82.702 130.1 83.2877L255.62 130.621L252.895 123.173Z" fill="#364351"/>
<path id="Path_23" d="M306.558 177.205C276.414 170.814 258.26 141.307 252.928 127.43C254.005 130.041 258.575 134.653 269.339 144.485C277.953 152.351 303.481 162.202 315.17 166.144C314.555 168.808 312.587 176.959 309.633 188.266C301.021 217.146 293.61 226.543 293.318 226.543C304.516 210.935 306.661 187.036 306.558 177.205Z" fill="#364351"/>
<path id="Path_24" d="M140.832 337.126L22.5107 382.819C81.0981 406.87 202.745 452.219 202.745 452.219C212.176 441.139 216.616 429.774 221.318 419.925L140.832 337.126Z" fill="#364351"/>
<path id="Path_25" d="M479.177 448.912L482.788 458.705H405.167L401.561 450.454L398.97 458.705H386.309L388.813 422.608L422.166 419.024L479.177 448.912Z" fill="#364351"/>
<path id="Path_26" d="M270.443 448.912L266.832 458.705H344.453L348.059 450.454L350.651 458.705H363.311L360.807 422.608L327.454 419.024L270.443 448.912Z" fill="#364351"/>
<path id="Shape" d="M417.081 343.91L422.151 423.452M389.566 423.452V343.91V423.452Z" stroke="#364351" stroke-width="2" stroke-linecap="round"/>
<path id="Shape_2" d="M332.539 343.91L327.471 423.452M360.054 423.452V343.91V423.452Z" stroke="#364351" stroke-width="2" stroke-linecap="round"/>
<path id="Shape_3" d="M397.306 350.902L398.977 412.109M351.348 354.24L346.891 423.239L351.348 354.24ZM339.65 376.777V423.239V376.777ZM412.905 357.301V422.126V357.301Z" stroke="#364351" stroke-width="2" stroke-linecap="round"/>
<path id="Path_27" fill-rule="evenodd" clip-rule="evenodd" d="M421.719 419.817C422.709 414.125 425.671 402.954 429.592 403.829C433.514 404.705 425.977 414.852 421.719 419.817Z" stroke="#364351" stroke-width="2"/>
<path id="Path_28" fill-rule="evenodd" clip-rule="evenodd" d="M327.901 419.817C326.91 414.125 323.948 402.954 320.028 403.829C316.107 404.705 323.642 414.852 327.901 419.817Z" stroke="#364351" stroke-width="2"/>
<path id="Path_29" fill-rule="evenodd" clip-rule="evenodd" d="M421.912 419.818C424.948 414.898 431.85 405.625 435.166 407.891C438.482 410.158 427.712 416.787 421.912 419.818Z" stroke="#364351" stroke-width="2"/>
<path id="Path_30" fill-rule="evenodd" clip-rule="evenodd" d="M327.708 419.818C324.672 414.898 317.77 405.625 314.454 407.891C311.138 410.158 321.909 416.787 327.708 419.818Z" stroke="#364351" stroke-width="2"/>
<path id="Path_31" d="M422.396 419.713C423.875 417.3 428.455 413.61 434.963 418.152C441.47 422.693 446.121 419.001 447.633 416.588" stroke="#364351" stroke-width="2" stroke-linecap="round"/>
<path id="Path_32" d="M327.223 419.713C325.747 417.3 321.165 413.61 314.657 418.152C308.15 422.693 303.499 419.001 301.987 416.588" stroke="#364351" stroke-width="2" stroke-linecap="round"/>
<path id="Path_33" fill-rule="evenodd" clip-rule="evenodd" d="M350.542 93.3712L350.439 92.7957L349.854 92.7893C349.111 92.7814 348.206 92.7252 347.42 92.6629C349.171 91.0823 350.237 89.0413 350.821 86.6887C351.072 85.6754 351.417 84.6569 351.863 83.6492C353.468 80.0148 356.047 77.2482 358.887 75.6989C361.727 74.1502 364.79 73.8324 367.444 75.0026C370.098 76.1726 371.927 78.6478 372.696 81.7868C373.463 84.9268 373.154 88.6935 371.548 92.328C369.943 95.9624 367.364 98.729 364.524 100.278C361.684 101.827 358.621 102.145 355.967 100.975C353.086 99.7049 351.175 96.895 350.542 93.3712Z" stroke="#364351" stroke-width="2"/>
<path id="Path_34" d="M362.117 89.8622C356.84 85.3368 356.879 78.4901 357.457 76.0634C358.145 75.2765 360.4 73.7355 363.917 73.8669C368.315 74.031 371.131 76.2774 373.216 82.1034C374.885 86.7642 371.617 93.4444 369.776 96.202C367.421 96.3327 365.703 94.6379 365.139 93.7741C366.888 92.9122 368.987 90.4919 367.254 88.518C365.521 86.5443 361.882 89.6568 362.117 89.8622Z" fill="#364351"/>
<path id="Path_35" d="M380.392 66.0457C372.585 64.9312 368.572 71.3976 367.543 74.7702L368.369 76.4912C368.652 75.7716 372.28 74.7209 374.928 74.7748C382.96 74.9386 385.122 88.3437 386.092 92.0377L398.189 74.1992C395.51 71.9457 388.201 67.1603 380.392 66.0457Z" fill="#364351"/>
<path id="Path_36" d="M353.215 85.5156C354.092 84.6614 356.418 83.4504 358.696 85.4388" stroke="#364351" stroke-width="2" stroke-linecap="round"/>
<path id="Path_37" d="M353.231 97.3581C353.917 97.4065 355.491 97.1394 356.301 95.6843" stroke="#364351" stroke-width="2" stroke-linecap="round"/>
<path id="Path_38" d="M353.48 88.5631C354.218 87.5124 356.255 85.9863 358.499 88.2863" stroke="#364351" stroke-width="2" stroke-linecap="round"/>
<path id="Oval_7" d="M356.04 89.321C356.606 89.2897 357.04 88.8058 357.008 88.2402C356.977 87.6745 356.493 87.2413 355.926 87.2725C355.36 87.3038 354.926 87.7877 354.958 88.3533C354.989 88.919 355.473 89.3522 356.04 89.321Z" fill="#364351"/>
<path id="Path_39" d="M362.922 91.62C363.253 91.0172 364.328 89.8381 365.99 89.9452" stroke="#364351" stroke-width="2" stroke-linecap="round"/>
<path id="Path_40" d="M364.437 90.4093C364.892 90.5306 365.624 91.1031 364.924 92.4235" stroke="#364351" stroke-width="2" stroke-linecap="round"/>
<path id="Shape_4" d="M368.864 97.5022L370.404 109.714M358.082 102.157L358.697 107.546L358.082 102.157Z" stroke="#364351" stroke-width="2" stroke-linecap="round"/>
<path id="Path_41" d="M359.069 105.562L357.827 101.397C361.808 101.78 365.794 100.103 367.288 99.2168C364.292 103.218 360.561 105.114 359.069 105.562Z" fill="#364351"/>
<path id="Path_42" d="M333.731 100.004C306.961 91.1591 283.26 95.386 277.58 96.8104C266.824 99.5076 241.296 115.007 259.362 135.761C277.549 156.213 322.848 169.747 343.226 173.958L353.312 140.723L290.549 120.231" stroke="#364351" stroke-width="2"/>
<path id="Path_43" d="M390.654 116.944C390.654 116.944 435.067 135.349 455.845 152.002C458.814 154.383 480.537 168.094 471.503 193.81C464.275 214.382 441.29 237.273 430.701 246.145L414.29 211.404L439.283 182.23L398.781 163.432" stroke="#364351" stroke-width="2"/>
<path id="Shape_5" d="M428.17 240.241L415.086 259.22M416.336 216.259L407.575 222.397L416.336 216.259Z" stroke="#364351" stroke-width="2"/>
<path id="Path 2" d="M331.88 98.6005L345.436 102.555C345.353 102.813 345.276 103.08 345.205 103.355L342.248 102.521C341.072 111.879 343.65 132.047 361.493 135.593C379.334 139.139 384.174 124.06 384.478 115.157L381.157 113.897C381.164 113.626 381.166 113.363 381.163 113.109L391.304 116.286L433.164 347.413H299.103L319.906 168.588L343.682 174.828L347.234 163.084L352.906 166.661C354.269 171.388 357.328 181.263 358.658 182.932C360.863 185.513 361.762 183.376 361.937 181.984L360.275 172.732C361.778 175.484 365.222 181.376 366.971 182.932C368.719 184.489 369.504 182.569 369.679 181.415C371.843 183.047 373.398 180.735 373.905 179.375C375.919 180.627 376.549 178.852 376.613 177.808L371.102 162.058L366.07 158.868C366.987 158.868 370.238 159.592 372.291 159.592C376.393 159.249 374.538 156.476 373.097 155.132L352.906 144.328L354.126 140.295L328.843 131.889L331.88 98.6005Z" fill="#ECFF8E"/>
<path id="Shape_6" d="M316.491 205.967H405.022M391.63 205.967L384.943 344.947L391.63 205.967Z" stroke="#364351" stroke-width="2" stroke-linecap="round"/>
<path id="Shape_7" d="M322.735 223.452H352.513M322.735 223.452C323.6 232.277 327.137 242.926 336.978 241.864C346.531 240.833 350.89 231.282 352.513 223.452H322.735ZM322.735 223.452C322.513 221.166 322.468 219.004 322.539 217.201H353.3C353.235 218.955 352.994 221.128 352.513 223.452H322.735Z" stroke="#364351" stroke-width="2"/>
<path id="Path_44" fill-rule="evenodd" clip-rule="evenodd" d="M371.58 154.952L352.404 144.767L346.962 162.867L353.406 167.247C354.78 171.997 357.76 181.76 358.69 182.814C360.434 185.294 361.965 184.399 361.965 182.392L359.905 171.363C361.631 174.793 365.217 181.452 365.506 181.917C367.668 185.414 369.785 182.814 369.097 180.44C372.003 183.923 373.589 180.809 373.06 178.435C375.12 180.968 377.128 179.912 376.388 176.798L371 162.076L364.079 156.957C364.696 157.098 367.564 158.515 370.735 159.279C375.384 160.071 375.437 156.957 371.58 154.952Z" stroke="#364351" stroke-width="2"/>
<path id="Path_45" d="M351.891 169.867L358.31 182.787L353.424 167.092L346.812 162.881L343.316 174.125L319.936 168.335L318.834 178.098L344.37 182.452L347.339 167.092L351.891 169.867Z" fill="#364351"/>
<path id="Shape_8" d="M373.256 179.022L368.97 167.82M369.129 180.548L364.961 169.743L369.129 180.548Z" stroke="#364351" stroke-width="2" stroke-linecap="round"/>
</g>
</g>
</svg>
